<?xml version="1.0" encoding="UTF-8"?>
<svg width="70px" height="73px" viewBox="0 0 70 73" version="1.1" xmlns="http://www.w3.org/2000/svg" xmlns:xlink="http://www.w3.org/1999/xlink">
    <title>编组 31</title>
    <g id="页面-1" stroke="none" stroke-width="1" fill="none" fill-rule="evenodd">
        <g id="inst" transform="translate(-1190.000000, -5092.000000)" fill="#FFFFFF">
            <g id="编组-16" transform="translate(0.000000, 4892.000000)">
                <g id="编组-31" transform="translate(1190.000000, 200.000000)">
                    <g id="编组-26" opacity="0.119778">
                        <ellipse id="椭圆形备份-4" cx="35" cy="36.0277778" rx="35" ry="36.0277778"></ellipse>
                    </g>
                    <g id="cloud-user" transform="translate(21.019778, 21.620264)" fill-rule="nonzero">
                        <path d="M13.9410773,14.7490832 C15.8618421,14.7490832 17.4263569,13.1386686 17.4263569,11.161458 C17.4263569,9.18428983 15.8618421,7.57383292 13.9410773,7.57383292 C12.0203125,7.57383292 10.4557977,9.18428983 10.4557977,11.161458 C10.4557977,13.1386686 12.0203125,14.7490832 13.9410773,14.7490832 Z M20.9116365,21.1271257 C20.9116365,18.7353756 16.264597,17.5395006 13.9410773,17.5395006 C11.6175576,17.5395006 6.97051809,18.7353756 6.97051809,21.1271257 L6.97051809,22.3230007 L20.9116365,22.3230007 L20.9116365,21.1271257 L20.9116365,21.1271257 Z M24.7841283,0 L3.09802632,0 C1.39407895,0 0,1.43505851 0,3.1890001 L0,25.5119585 C0,27.2659424 1.39412007,28.7009586 3.09802632,28.7009586 L24.7841694,28.7009586 C26.4881168,28.7009586 27.8821957,27.2659001 27.8821957,25.5119585 L27.8821957,3.1890001 C27.8821957,1.43505851 26.4880757,0 24.7841283,0 L24.7841283,0 Z M26.0285192,26.7928487 L1.85367657,26.7928487 L1.85367657,1.90810993 L26.0285192,1.90810993 L26.0285192,26.7928487 L26.0285192,26.7928487 L26.0285192,26.7928487 Z" id="形状"></path>
                    </g>
                </g>
            </g>
        </g>
    </g>
</svg>