<?xml version="1.0" encoding="UTF-8"?>
<svg width="70px" height="73px" viewBox="0 0 70 73" version="1.1" xmlns="http://www.w3.org/2000/svg" xmlns:xlink="http://www.w3.org/1999/xlink">
    <title>编组 21</title>
    <g id="页面-1" stroke="none" stroke-width="1" fill="none" fill-rule="evenodd">
        <g id="inst" transform="translate(-1190.000000, -5426.000000)" fill="#FFFFFF">
            <g id="编组-16" transform="translate(0.000000, 4892.000000)">
                <g id="编组-17" transform="translate(1190.000000, 200.000000)">
                    <g id="编组-33" transform="translate(0.000000, 319.044444)">
                        <g id="编组-21" transform="translate(0.000000, 15.499206)">
                            <ellipse id="椭圆形备份-5" opacity="0.116426" cx="35" cy="36.0277778" rx="35" ry="36.0277778"></ellipse>
                            <g id="jiaoyi-3" transform="translate(18.500000, 19.043254)" fill-rule="nonzero">
                                <path d="M6.58130859,19.929282 C3.19383134,17.8982886 1.39774908,13.9069628 2.08340002,9.93384979 C2.76905095,5.96073676 5.79069261,2.85036436 9.65046318,2.14457923 C13.5102337,1.43879409 17.3876975,3.28761845 19.360752,6.77456924 C19.502334,6.76970388 19.6444531,6.76727121 19.7871094,6.76727121 C20.3895528,6.76713671 20.9913125,6.80903055 21.588252,6.89266476 C19.831582,2.83163858 15.8767383,0 11.2792969,0 C5.04990234,0 0,5.19819313 0,11.6105143 C0,16.34296 2.75085938,20.413938 6.69603516,22.2221927 C6.61478681,21.607724 6.57408809,20.9882936 6.57421875,20.3681594 C6.57421875,20.2213141 6.57658203,20.0750216 6.58130859,19.929282 Z" id="路径"></path>
                                <path d="M21.588252,6.89266476 C20.9913125,6.80903055 20.3895528,6.76727088 19.7871094,6.76727088 C19.6444531,6.76727088 19.502334,6.76970388 19.360752,6.77456924 C12.4023926,7.00180359 6.80206055,12.7665898 6.58130859,19.929282 C6.57658203,20.0750216 6.57421844,20.2213141 6.57421844,20.3681594 C6.57421844,20.9882936 6.61478681,21.607724 6.69603516,22.2221927 C7.57485352,28.8567723 13.1007422,33.9690476 19.7871094,33.9690476 C27.0844922,33.9690476 33,27.8798305 33,20.3681594 C33,13.4854465 28.0335645,7.79728969 21.588252,6.89266476 Z M27.7628613,28.57812 C24.594868,31.8523495 19.8410802,32.8786725 15.6620087,31.1906437 C11.4829371,29.5026149 8.67584837,25.4222697 8.51651367,20.8040513 C8.51135742,20.6590857 8.50780716,20.5141202 8.50780716,20.3681594 C8.5049014,17.2879419 9.69231763,14.3330208 11.8082275,12.154977 C13.9241374,9.97693331 16.7947624,8.75464851 19.7871094,8.75763959 C19.9289062,8.75763959 20.0697363,8.76129411 20.2105664,8.76660177 C24.6943136,8.93598724 28.653763,11.8258544 30.2927106,16.1252152 C31.9316582,20.4245759 30.9381384,25.315068 27.7628613,28.57812 L27.7628613,28.57812 Z" id="形状"></path>
                            </g>
                        </g>
                    </g>
                </g>
            </g>
        </g>
    </g>
</svg>