<?xml version="1.0" encoding="UTF-8"?>
<svg width="70px" height="73px" viewBox="0 0 70 73" version="1.1" xmlns="http://www.w3.org/2000/svg" xmlns:xlink="http://www.w3.org/1999/xlink">
    <title>编组 27</title>
    <g id="页面-1" stroke="none" stroke-width="1" fill="none" fill-rule="evenodd">
        <g id="inst" transform="translate(-1190.000000, -5602.000000)" fill="#FFFFFF">
            <g id="编组-16" transform="translate(0.000000, 4892.000000)">
                <g id="编组-17" transform="translate(1190.000000, 200.000000)">
                    <g id="编组-35" transform="translate(0.000000, 508.447619)">
                        <g id="编组-27" transform="translate(0.000000, 2.117460)">
                            <ellipse id="椭圆形备份-6" opacity="0.117293" cx="35" cy="36.0277778" rx="35" ry="36.0277778"></ellipse>
                            <g id="qiapian" transform="translate(19.000000, 23.160714)" fill-rule="nonzero">
                                <path d="M29.4637411,25.2792293 L2.46483036,25.2792293 C1.111179,25.2792293 0.0103938929,24.1461195 0.0103938929,22.7527181 L0.0103938929,2.54025244 C0.0103938929,1.14715194 1.111179,0.0137412518 2.46483036,0.0137412518 L29.4637411,0.0137412518 C30.8173924,0.0137412518 31.9181775,1.14715194 31.9181775,2.54025244 L31.9181775,22.7527557 C31.9181775,24.1461196 30.8173924,25.2792293 29.4637411,25.2792293 L29.4637411,25.2792293 Z M2.46483036,2.54025244 L2.46483036,22.7527557 L29.4655319,22.7527557 L29.4637411,2.54025244 L2.46483036,2.54025244 Z" id="形状"></path>
                                <path d="M30.0773593,10.119786 L1.85121211,10.119786 C1.17349104,10.119786 0.623975571,9.55417157 0.623975571,8.85651156 C0.623975571,8.15885155 1.17345446,7.59323716 1.85121211,7.59323716 L30.0773593,7.59323716 C30.7550804,7.59323716 31.3045959,8.15885155 31.3045959,8.85651156 C31.3045959,9.55417157 30.7550804,10.119786 30.0773593,10.119786 Z" id="路径"></path>
                                <path d="M27.0095239,16.7520518 L15.9644685,16.7520518 L15.9644685,18.6469634 C15.9644685,19.3446235 16.5139108,19.9102378 17.191705,19.9102378 L25.7822874,19.9102378 C26.4600816,19.9102378 27.0095239,19.3446611 27.0095239,18.6469634 L27.0095239,16.7520518 L27.0095239,16.7520518 Z" id="路径"></path>
                            </g>
                        </g>
                    </g>
                </g>
            </g>
        </g>
    </g>
</svg>