<?xml version="1.0" encoding="UTF-8"?>
<svg width="51px" height="24px" viewBox="0 0 51 24" version="1.1" xmlns="http://www.w3.org/2000/svg" xmlns:xlink="http://www.w3.org/1999/xlink">
    <title>编组 15</title>
    <g id="页面-1" stroke="none" stroke-width="1" fill="none" fill-rule="evenodd">
        <g id="inst" transform="translate(-320.000000, -7539.000000)">
            <g id="编组-3" transform="translate(0.000000, 7509.000000)">
                <g id="编组-15" transform="translate(320.000000, 30.000000)">
                    <path d="M26.605,7.84 C27.4,7.84 27.88,7.345 27.88,6.58 C27.88,5.815 27.4,5.305 26.605,5.305 C25.825,5.305 25.33,5.815 25.33,6.58 C25.33,7.345 25.78,7.84 26.605,7.84 Z M27.625,17.5 L27.625,8.725 L25.585,8.725 L25.585,17.5 L27.625,17.5 Z M30.82,17.5 L30.82,12.685 C30.82,11.14 31.72,10.3 32.875,10.3 C34.195,10.3 34.855,11.14 34.855,12.505 L34.855,17.5 L36.91,17.5 L36.91,12.295 C36.91,9.91 35.635,8.545 33.43,8.545 C32.29,8.545 31.39,9.04 30.805,9.805 L30.805,8.725 L28.795,8.725 L28.795,17.5 L30.82,17.5 Z M41.38,17.68 C43.885,17.68 44.98,16.045 44.98,14.815 C44.98,12.97 43.33,12.46 41.89,12.175 C40.57,11.89 39.88,11.74 39.88,11.155 C39.88,10.66 40.33,10.21 41.29,10.21 C42.13,10.21 42.79,10.6 43.15,11.215 L44.875,10.345 C44.2,9.22 43.075,8.53 41.29,8.53 C39.205,8.53 37.84,9.805 37.84,11.215 C37.84,13.06 39.415,13.54 40.915,13.855 C41.995,14.095 42.97,14.215 42.97,14.86 C42.97,15.445 42.475,15.925 41.47,15.925 C40.51,15.925 39.775,15.475 39.355,14.65 L37.48,15.55 C38.185,16.93 39.415,17.68 41.38,17.68 Z M50.71,17.5 L50.71,15.595 C49.1862791,15.595 48.9361871,15.366033 48.925379,13.9296644 L48.925,10.54 L50.71,10.54 L50.71,8.725 L48.925,8.725 L48.925,5.995 L46.885,7.39 L46.885,8.725 L45.385,8.725 L45.385,10.54 L46.885,10.54 L46.885,13.84 C46.885,16.63 47.71,17.5 50.425,17.5 L50.71,17.5 Z" id="inst" fill="#0045FF" fill-rule="nonzero"></path>
                    <g id="logo">
                        <g id="形状结合" fill="#4C72FF">
                            <path d="M15.9322608,1.63415507 C15.9729043,1.81053012 16,1.98690517 16,2.16328023 L16,15.0522264 C16,16.0426402 15.322608,16.9109481 14.3607113,17.1551598 L3.21083827,19.9907279 L3.26502964,19.9907279 L3.26502964,20.994709 L2.91278577,20.8183339 C2.91278577,20.8183339 2.92633362,20.8183339 2.92633362,20.8319013 C2.70956816,20.7233628 2.51989839,20.6283916 2.34377646,20.5469877 L2.24894157,20.5062858 C1.61219306,20.1942376 1.27349704,20.0178625 1.20575783,19.9771606 C1.23285351,19.9907279 1.2599492,20.0042952 1.30059272,20.0178625 L1.34123624,20.0314299 L1.30059272,20.0178625 C0.704487722,19.7600836 0.243861135,19.2445258 0.0677392041,18.5661602 C0.0270956816,18.3897851 0,18.2134101 0,18.037035 L0,5.14808882 C0,4.15767506 0.677392041,3.28936711 1.63928874,3.04515549 L13.2904318,0.0739142121 C14.4555461,-0.238133959 15.6342083,0.467366254 15.9322608,1.63415507 Z" id="路径"></path>
                        </g>
                        <g id="形状结合_1_" transform="translate(0.000000, 3.259259)" fill="#0045FF">
                            <path d="M1.08513709,0.0229505456 C1.35642136,-0.139622099 0.42049062,0.591954801 0.529004329,1.2557931 C0.596825397,1.66222471 0.963059163,2.10929948 1.62770563,2.61056514 L10.7021645,6.94583565 C11.4617605,7.3116241 11.9365079,8.07029644 11.9365079,8.91025511 L11.9365079,8.91025511 L11.8958153,18.5833275 C11.8958153,18.9220205 11.81443,19.2471657 11.6652237,19.5452156 C11.1226551,20.6154855 9.82049062,21.0490126 8.74891775,20.5071037 L8.74891775,20.5071037 L1.19365079,16.7001943 C0.461183261,16.3344059 0,15.5892812 0,14.7628703 L0,14.7628703 L0,1.81124963 C0,1.64867699 0.0542568543,0.605502521 1.08513709,0.0229505456 Z" id="路径"></path>
                        </g>
                        <g id="形状" transform="translate(2.708995, 17.777778)" fill="#00B5FF">
                            <path d="M9.22751323,0 L9.21390333,4.06220903 C9.21390333,4.40185862 9.13224392,4.72792222 8.982535,5.02681385 C8.45174884,6.08652056 7.1588082,6.52127202 6.09723588,6.00500466 L6.05640617,5.99141867 L0.558005962,3.21987806 C0.190538621,2.96174438 0,2.75795463 0,2.60850881 C0,2.40471906 0.0952693106,2.36396111 0.244978227,2.29603119 L0.299417833,2.26885923 L0.353857439,2.25527324 L0.408297045,2.24168726 L0.462736652,2.22810128 L9.22751323,0 L9.15946372,0 L9.22751323,0 Z" id="路径"></path>
                        </g>
                    </g>
                </g>
            </g>
        </g>
    </g>
</svg>