<?xml version="1.0" encoding="UTF-8"?>
<svg width="80px" height="80px" viewBox="0 0 80 80" version="1.1" xmlns="http://www.w3.org/2000/svg" xmlns:xlink="http://www.w3.org/1999/xlink">
    <title>编组 23</title>
    <g id="页面-1" stroke="none" stroke-width="1" fill="none" fill-rule="evenodd">
        <g id="inst" transform="translate(-1360.000000, -6344.000000)">
            <g id="编组-19" transform="translate(318.000000, 5879.000000)">
                <g id="编组-23" transform="translate(1042.000000, 465.000000)">
                    <circle id="椭圆形" fill="#0045FF" cx="40" cy="40" r="40"></circle>
                    <g id="编组-4" transform="translate(22.500000, 19.000000)" fill="#FFFFFF">
                        <path d="M17.010273,0 C17.3482649,0 17.6724702,0.135053374 17.9107023,0.375270808 C21.6128412,3.87728365 26.9159334,5.87848899 32.7194233,5.87848899 C33.4199472,5.87848899 34.0203254,6.47864655 34.0203254,7.17917044 L34.0203254,7.17917044 L34.0203254,23.0886674 C34.0203254,28.0914878 31.4189625,32.8943475 26.9161539,35.7962028 L26.9161539,35.7962028 L17.7105763,41.7996534 C17.5104502,41.8997991 17.210399,42 17.0100524,42 C16.8099263,42 16.5098751,41.8995785 16.3095285,41.7996534 L16.3095285,41.7996534 L7.10417143,35.7962028 C2.70172923,32.8943475 0,28.1916335 0,23.0886674 L0,23.0886674 L0,7.17917044 C0,6.47864655 0.600598732,5.87848899 1.30090204,5.87848899 C7.10439201,5.87848899 12.5074645,3.87706306 16.109623,0.375270808 C16.3478552,0.135053374 16.6720605,0 17.010273,0 Z M17.0100524,12.8825147 C15.2091937,12.8825147 14.0084374,13.9832907 14.0084374,15.5840233 C14.0084374,17.6853744 16.1098436,20.9872612 16.1098436,23.3887186 C16.1098436,25.2899988 14.6090361,26.1904282 14.6090361,27.4911096 C14.6090361,28.3917596 15.5094655,29.3921692 17.010273,29.3921692 C18.4111002,29.3921692 19.4117304,28.3917596 19.4117304,27.4911096 C19.4117304,26.0902824 18.0109032,25.4901249 17.9107023,23.3887186 C17.9107023,20.9872612 20.0116674,17.5850081 20.0116674,15.5840233 C20.0116674,13.9830701 18.8111317,12.8825147 17.0100524,12.8825147 Z" id="形状结合"></path>
                    </g>
                </g>
            </g>
        </g>
    </g>
</svg>