<?xml version="1.0" encoding="UTF-8"?>
<svg width="80px" height="80px" viewBox="0 0 80 80" version="1.1" xmlns="http://www.w3.org/2000/svg" xmlns:xlink="http://www.w3.org/1999/xlink">
    <title>编组 18</title>
    <g id="页面-1" stroke="none" stroke-width="1" fill="none" fill-rule="evenodd">
        <g id="inst" transform="translate(-480.000000, -6344.000000)">
            <g id="编组-19" transform="translate(318.000000, 5879.000000)">
                <g id="编组-18" transform="translate(162.000000, 465.000000)">
                    <circle id="椭圆形" fill="#0045FF" cx="40" cy="40" r="40"></circle>
                    <path d="M12.5,29 L12.5,30.5051343 L23.2056576,30.5051343 L23.2056576,29 L12.5,29 L12.5,29 Z M24.7224009,29 L24.7224009,30.5051343 L39.9784392,30.5051343 C39.9784392,30.5051343 38.4200821,29 36.3561774,29 L24.7224009,29 L24.7224009,29 Z M42.9712669,29 L42.9712669,30.5051343 L52.2009909,30.5051343 L51.6531762,29 L42.9712669,29 L42.9712669,29 Z M58.8180908,29 L58.2703263,30.5051343 L67.4162195,30.5051343 L67.4162195,29 L58.8180908,29 L58.8180908,29 Z M12.5,31.927242 L12.5,33.4324266 L23.2056576,33.4324266 L23.2056576,31.927242 L12.5,31.927242 L12.5,31.927242 Z M24.7224009,31.9294031 L24.7224009,33.4323764 L41.7487353,33.4323764 C41.7487353,33.4323764 41.5500143,32.2739738 41.2029309,31.9294031 L24.7224009,31.9294031 L24.7224009,31.9294031 Z M42.9712669,31.9294031 L42.9712669,33.4323764 L53.21284,33.4323764 L52.7057846,31.9294031 L42.9712669,31.9294031 L42.9712669,31.9294031 Z M57.7224612,31.9294031 L57.2153556,33.4323764 L67.4161693,33.4323764 L67.4161693,31.9294031 L57.7224612,31.9294031 L57.7224612,31.9294031 Z M15.5765579,34.8545343 L15.5765579,36.36188 L20.2128802,36.36188 L20.2128802,34.8545343 L15.5765579,34.8545343 L15.5765579,34.8545343 Z M27.7990091,34.8545343 L27.7990091,36.36188 L32.4353313,36.36188 L32.4353313,34.8545343 L27.7990091,34.8545343 L27.7990091,34.8545343 Z M36.9449023,34.8545343 L36.9449023,36.36188 L41.5812246,36.36188 C41.5812246,36.36188 41.8755368,35.5658394 41.8755368,34.8545343 L36.9449023,34.8545343 L36.9449023,34.8545343 Z M46.0478248,34.8545343 L46.0478248,36.36188 L54.2676096,36.36188 L53.7197445,34.8545343 L46.0478248,34.8545343 L46.0478248,34.8545343 Z M56.7126727,34.8545343 L56.1626466,36.36188 L64.4232913,36.36188 L64.4232913,34.8545343 L56.7126727,34.8545343 L56.7126727,34.8545343 Z M15.5765579,37.7838369 L15.5765579,39.2890215 L20.2128802,39.2890215 L20.2128802,37.7838369 L15.5765579,37.7838369 L15.5765579,37.7838369 Z M27.7990091,37.7838369 L27.7990091,39.2890215 L39.6411562,39.2890215 C39.6411562,39.2890215 40.6317963,38.5167029 40.9474683,37.7838369 L27.7990091,37.7838369 L27.7990091,37.7838369 Z M46.0478248,37.7838369 L46.0478248,39.2890215 L50.6840465,39.2890215 L50.6840465,38.4511158 L50.978409,39.2890215 L59.471096,39.2890215 L59.7870193,38.4511158 L59.7870193,39.2890215 L64.423241,39.2890215 L64.423241,37.7838369 L55.7199721,37.7838369 L55.2581492,39.0587884 L54.7940646,37.7838369 L46.0478248,37.7838369 L46.0478248,37.7838369 Z M15.5765579,40.711079 L15.5765579,42.2162133 L20.2128802,42.2162133 L20.2128802,40.711079 L15.5765579,40.711079 L15.5765579,40.711079 Z M27.7990091,40.711079 L27.7990091,42.2162133 L40.9474683,42.2162133 C40.6316455,41.48581 39.6411562,40.711079 39.6411562,40.711079 L27.7990091,40.711079 L27.7990091,40.711079 Z M46.0478248,40.711079 L46.0478248,42.2162133 L50.6840465,42.2162133 L50.6840465,40.711079 L46.0478248,40.711079 L46.0478248,40.711079 Z M51.5263244,40.711079 L52.0870052,42.2162133 L58.4550755,42.2162133 L58.9877626,40.711079 L51.5263244,40.711079 L51.5263244,40.711079 Z M59.7870696,40.711079 L59.7870696,42.2162133 L64.4232913,42.2162133 L64.4232913,40.711079 L59.7870696,40.711079 L59.7870696,40.711079 Z M15.5765579,43.6382205 L15.5765579,45.1434553 L20.2128802,45.1434553 L20.2128802,43.6382205 L15.5765579,43.6382205 L15.5765579,43.6382205 Z M27.7990091,43.6382205 L27.7990091,45.1434553 L32.4353313,45.1434553 L32.4353313,43.6382205 L27.7990091,43.6382205 L27.7990091,43.6382205 Z M36.9449023,43.6382205 L36.9449023,45.1434553 L41.8755871,45.1434553 C41.8755871,44.4332056 41.5812749,43.6382205 41.5812749,43.6382205 L36.9449023,43.6382205 L36.9449023,43.6382205 Z M46.0478248,43.6382205 L46.0478248,45.1434553 L50.6840465,45.1434553 L50.6840465,43.6382205 L46.0478248,43.6382205 L46.0478248,43.6382205 Z M52.5790836,43.6382205 L53.1225762,45.1434553 L57.3915107,45.1434553 L57.939225,43.6382205 L52.5790836,43.6382205 L52.5790836,43.6382205 Z M59.7870696,43.6382205 L59.7870696,45.1434553 L64.4232913,45.1434553 L64.4232913,43.6382205 L59.7870696,43.6382205 L59.7870696,43.6382205 Z M12.5837805,46.5655128 L12.5837805,48.0727077 L23.2894883,48.0727077 L23.2894883,46.5655128 L12.5837805,46.5655128 L12.5837805,46.5655128 Z M24.7224009,46.5655128 L24.7224009,48.0727077 L41.2030817,48.0727077 C41.549964,47.7276345 41.7487856,46.5655128 41.7487856,46.5655128 L24.7224009,46.5655128 L24.7224009,46.5655128 Z M43.0550977,46.5655128 L43.0550977,48.0727077 L50.6842476,48.0727077 L50.6842476,46.5655128 L43.0550977,46.5655128 L43.0550977,46.5655128 Z M53.6339035,46.5655128 L54.1926243,48.0727077 L56.3645842,48.0727077 L56.8889284,46.5655128 L53.6339035,46.5655128 L53.6339035,46.5655128 Z M59.7870696,46.5655128 L59.7870696,48.0727077 L67.5,48.0727077 L67.5,46.5655128 L59.7870696,46.5655128 L59.7870696,46.5655128 Z M12.5837805,49.4948154 L12.5837805,51 L23.2894883,51 L23.2894883,49.4948154 L12.5837805,49.4948154 L12.5837805,49.4948154 Z M24.7224009,49.4948154 L24.7224009,50.9978389 L36.3561774,50.9978389 C38.4201324,50.9978389 39.9785398,49.4948154 39.9785398,49.4948154 L24.7224009,49.4948154 L24.7224009,49.4948154 Z M43.0550977,49.4948154 L43.0550977,51 L50.6842476,51 L50.6842476,49.4948154 L43.0550977,49.4948154 L43.0550977,49.4948154 Z M54.6930455,49.4948154 L55.2302056,50.9956777 L55.3225299,50.9978389 L55.8681333,49.4948154 L54.6930455,49.4948154 L54.6930455,49.4948154 Z M59.7870696,49.4948154 L59.7870696,51 L67.5,51 L67.5,49.4948154 L59.7870696,49.4948154 L59.7870696,49.4948154 Z" id="形状" fill="#FFFFFF" fill-rule="nonzero"></path>
                </g>
            </g>
        </g>
    </g>
</svg>