<?xml version="1.0" encoding="UTF-8"?>
<svg width="70px" height="73px" viewBox="0 0 70 73" version="1.1" xmlns="http://www.w3.org/2000/svg" xmlns:xlink="http://www.w3.org/1999/xlink">
    <title>编组 28</title>
    <g id="页面-1" stroke="none" stroke-width="1" fill="none" fill-rule="evenodd">
        <g id="inst" transform="translate(-1190.000000, -5254.000000)" fill="#FFFFFF">
            <g id="编组-16" transform="translate(0.000000, 4892.000000)">
                <g id="编组-17" transform="translate(1190.000000, 200.000000)">
                    <g id="编组-28" transform="translate(0.000000, 162.639683)">
                        <ellipse id="椭圆形备份-3" opacity="0.117954" cx="35" cy="36.0277778" rx="35" ry="36.0277778"></ellipse>
                        <g id="kyc-2" transform="translate(17.005088, 21.575976)" fill-rule="nonzero">
                            <path d="M10.7457286,14.7707164 C7.44603015,14.7707164 4.7758794,17.5192764 4.7758794,20.9084221 L4.80482412,20.9084221 C4.79758794,20.9605628 4.7758794,20.9978062 4.7758794,21.0499469 C4.7758794,21.6458406 5.25346734,22.137453 5.83236181,22.137453 L15.6590955,22.137453 C16.2452261,22.137453 16.7155779,21.6532893 16.7155779,21.0499469 C16.7155779,20.9978062 16.6938693,20.9531141 16.6866332,20.9084221 L16.7155779,20.9084221 C16.7155779,17.5192764 14.0454271,14.7707164 10.7457286,14.7707164 L10.7457286,14.7707164 Z M14.3276382,11.0836238 C14.3276382,9.0501364 12.721206,7.39653123 10.7457286,7.39653123 C8.77025126,7.39653123 7.1638191,9.04268772 7.1638191,11.0836238 C7.1638191,13.1171113 8.77025126,14.7632928 10.7457286,14.7632928 C12.721206,14.7707164 14.3276382,13.1171113 14.3276382,11.0836238 L14.3276382,11.0836238 Z M20.2974874,12.6338787 L27.4613065,12.6338787 C28.119799,12.6338787 28.6552764,12.2183895 28.6552764,11.7074501 C28.6552764,11.2021254 28.119799,10.7810215 27.4613065,10.7810215 L20.2974874,10.7810215 C19.638995,10.7810215 19.1035176,11.2021254 19.1035176,11.7074501 C19.1035176,12.2183895 19.638995,12.6338787 20.2974874,12.6338787 L20.2974874,12.6338787 Z M29.8492462,14.7707164 L20.2974874,14.7707164 C19.638995,14.7707164 19.1035176,15.1862056 19.1035176,15.697145 C19.1035176,16.2080844 19.638995,16.6235736 20.2974874,16.6235736 L29.8492462,16.6235736 C30.5077387,16.6235736 31.0432161,16.2080844 31.0432161,15.697145 C31.0432161,15.1862056 30.5077387,14.7707164 29.8492462,14.7707164 Z M31.0432161,0 L4.7758794,0 C2.14190955,0 0,2.20480689 0,4.91612347 L0,24.5806174 C0,27.291934 2.14190955,29.4967408 4.7758794,29.4967408 L31.0432161,29.4967408 C33.6771859,29.4967408 35.8190955,27.291934 35.8190955,24.5806174 L35.8190955,4.91612347 C35.8190955,2.19735822 33.6771859,0 31.0432161,0 Z M34.1943094,25.0640412 C34.1943094,26.4863534 33.0706988,27.6429589 31.6889615,27.6429589 L4.13013399,27.6429589 C2.74839663,27.6429589 1.62478604,26.4863534 1.62478604,25.0640412 L1.62478604,4.43269964 C1.62478604,3.01038746 2.74839663,1.85378194 4.13013399,1.85378194 L31.6889615,1.85378194 C33.0706988,1.85378194 34.1943094,3.01038746 34.1943094,4.43269964 L34.1943094,25.0640412 Z M27.4613065,18.7529627 L20.2974874,18.7529627 C19.638995,18.7529627 19.1035176,19.1684518 19.1035176,19.6793912 C19.1035176,20.1847159 19.638995,20.6058198 20.2974874,20.6058198 L27.4613065,20.6058198 C28.119799,20.6058198 28.6552764,20.1903306 28.6552764,19.6793912 C28.6552764,19.1684518 28.119799,18.7529627 27.4613065,18.7529627 Z" id="形状"></path>
                        </g>
                    </g>
                </g>
            </g>
        </g>
    </g>
</svg>