<?xml version="1.0" encoding="UTF-8"?>
<svg width="80px" height="80px" viewBox="0 0 80 80" version="1.1" xmlns="http://www.w3.org/2000/svg" xmlns:xlink="http://www.w3.org/1999/xlink">
    <title>编组 22</title>
    <g id="页面-1" stroke="none" stroke-width="1" fill="none" fill-rule="evenodd">
        <g id="inst" transform="translate(-920.000000, -6344.000000)">
            <g id="编组-19" transform="translate(318.000000, 5879.000000)">
                <g id="编组-22" transform="translate(602.000000, 465.000000)">
                    <circle id="椭圆形" fill="#0045FF" cx="40" cy="40" r="40"></circle>
                    <g id="编组-5" transform="translate(22.000000, 19.000000)" fill="#FFFFFF">
                        <path d="M17.5972829,0 L35.1931829,7.60051463 L35.1931829,19.1138927 C35.1931829,21.7526707 34.7480341,24.3166683 33.859478,26.8044 C33.0055976,29.2263146 31.7768927,31.4993854 30.2179244,33.5401756 C28.6480976,35.6063707 26.754,37.4044317 24.608978,38.8645976 C22.4791683,40.3155439 20.1018659,41.364161 17.5943122,41.9589732 C15.0883463,41.3639561 12.7124268,40.3151341 10.5842561,38.8645976 C8.43882439,37.4048415 6.54447073,35.6065756 4.97510488,33.5401756 C3.41608537,31.4993854 2.18722683,29.2265195 1.33370488,26.8044 C0.444995122,24.3166683 0,21.7543098 0,19.1138927 L0,7.60051463 L17.5972829,0 Z M31.3029073,20.9345927 L17.5972829,20.9345927 L17.5972829,37.9534537 C19.4161902,37.4478659 21.1310707,36.6239488 22.6624317,35.5197073 C24.2023976,34.4109073 25.5737488,33.0849878 26.7339732,31.5832317 C27.9492585,30.080861 28.9534171,28.4196073 29.7189439,26.6455683 C30.5078268,24.8240488 31.0408171,22.902139 31.3029073,20.9345927 Z M17.5972829,4.14196829 L3.89165854,10.1030488 L3.89165854,20.9345927 L17.5972829,20.9345927 L17.5972829,4.14196829 Z" id="形状结合"></path>
                    </g>
                </g>
            </g>
        </g>
    </g>
</svg>